<svg width="120" height="120" viewBox="0 0 120 120" fill="none" xmlns="http://www.w3.org/2000/svg">
<rect width="120" height="120" rx="30" fill="#0000F2"/>
<path d="M60.2305 25C63.3206 25 66.2098 25.3353 68.8057 26.1104C65.551 28.6738 63.462 32.6507 63.4619 37.1152C63.4619 44.8472 69.7299 51.1152 77.4619 51.1152C78.9961 51.1152 80.4722 50.8672 81.8535 50.4111C82.7988 64.3481 91.4619 67.1714 91.4619 74.8076C91.4619 76.5927 90.7525 78.3051 89.4902 79.5674C88.228 80.8296 86.5155 81.5381 84.7305 81.5381H35.7305C33.9456 81.538 32.2338 80.8294 30.9717 79.5674C29.7094 78.3051 29 76.5927 29 74.8076C29.0001 66.7308 38.6923 64.0384 38.6924 47.8848C38.6924 30.3849 47.846 25.0001 60.2305 25Z" fill="white"/>
<path d="M77.4615 47.3463C83.1118 47.3463 87.6923 42.7658 87.6923 37.1155C87.6923 31.4652 83.1118 26.8848 77.4615 26.8848C71.8112 26.8848 67.2308 31.4652 67.2308 37.1155C67.2308 42.7658 71.8112 47.3463 77.4615 47.3463Z" fill="white"/>
<path d="M70.9133 85.5771C70.2506 90.8892 65.7223 95 60.2307 95C54.7392 95 50.2108 90.8892 49.5481 85.5771H70.9133Z" fill="white"/>
</svg>
