<svg width="476" height="120" viewBox="0 0 476 120" fill="none" xmlns="http://www.w3.org/2000/svg">
<rect width="120" height="120" rx="30" fill="#0000F2"/>
<path d="M60.2305 25C63.3206 25 66.2098 25.3353 68.8057 26.1104C65.551 28.6738 63.462 32.6507 63.4619 37.1152C63.4619 44.8472 69.7299 51.1152 77.4619 51.1152C78.9961 51.1152 80.4722 50.8672 81.8535 50.4111C82.7988 64.3481 91.4619 67.1714 91.4619 74.8076C91.4619 76.5927 90.7525 78.3051 89.4902 79.5674C88.228 80.8296 86.5155 81.5381 84.7305 81.5381H35.7305C33.9456 81.538 32.2338 80.8294 30.9717 79.5674C29.7094 78.3051 29 76.5927 29 74.8076C29.0001 66.7308 38.6923 64.0384 38.6924 47.8848C38.6924 30.3849 47.846 25.0001 60.2305 25Z" fill="white"/>
<path d="M77.4615 47.3463C83.1118 47.3463 87.6923 42.7658 87.6923 37.1155C87.6923 31.4652 83.1118 26.8848 77.4615 26.8848C71.8112 26.8848 67.2308 31.4652 67.2308 37.1155C67.2308 42.7658 71.8112 47.3463 77.4615 47.3463Z" fill="white"/>
<path d="M70.9133 85.5771C70.2506 90.8892 65.7223 95 60.2307 95C54.7392 95 50.2108 90.8892 49.5481 85.5771H70.9133Z" fill="white"/>
<path d="M472.228 49.457C473.65 49.457 474.618 50.899 474.079 52.2148L452.947 103.829C452.639 104.58 451.908 105.071 451.096 105.071H448.932C447.51 105.071 446.542 103.63 447.08 102.314L453.095 87.6111C453.293 87.1265 453.294 86.5835 453.096 86.0987L439.279 52.2122C438.742 50.8967 439.71 49.457 441.131 49.457H443.754C444.58 49.457 445.321 49.9646 445.619 50.7346L455.117 75.2507C455.778 76.9576 458.195 76.9529 458.849 75.2434L468.23 50.7419C468.527 49.968 469.27 49.457 470.098 49.457H472.228Z" fill="#001F3F"/>
<path d="M393.666 68.2249C393.666 64.3609 394.448 60.9799 396.012 58.0819C397.576 55.1379 399.715 52.8609 402.429 51.2509C405.189 49.6409 408.248 48.8359 411.606 48.8359C414.918 48.8359 417.793 49.5489 420.231 50.9749C420.905 51.3696 421.532 51.7924 422.112 52.2434C423.266 53.1414 425.682 52.335 425.682 50.8727C425.682 50.0908 426.315 49.4569 427.097 49.4569H430.03C431.134 49.4569 432.03 50.3524 432.03 51.4569V85.2689C432.03 86.3735 431.134 87.2689 430.03 87.2689H427.143C426.336 87.2689 425.682 86.6149 425.682 85.808C425.682 84.3047 423.23 83.4852 422.049 84.4153C421.446 84.8899 420.794 85.3351 420.093 85.7509C417.655 87.1769 414.803 87.8899 411.537 87.8899C408.179 87.8899 405.143 87.0619 402.429 85.4059C399.715 83.7499 397.576 81.4269 396.012 78.4369C394.448 75.4469 393.666 72.0429 393.666 68.2249ZM425.682 68.2939C425.682 65.4419 425.107 62.9579 423.957 60.8419C422.807 58.7259 421.243 57.1159 419.265 56.0119C417.333 54.8619 415.194 54.2869 412.848 54.2869C410.502 54.2869 408.363 54.8389 406.431 55.9429C404.499 57.0469 402.958 58.6569 401.808 60.7729C400.658 62.8889 400.083 65.3729 400.083 68.2249C400.083 71.1229 400.658 73.6529 401.808 75.8149C402.958 77.9309 404.499 79.5639 406.431 80.7139C408.363 81.8179 410.502 82.3699 412.848 82.3699C415.194 82.3699 417.333 81.8179 419.265 80.7139C421.243 79.5639 422.807 77.9309 423.957 75.8149C425.107 73.6529 425.682 71.1459 425.682 68.2939Z" fill="#001F3F"/>
<path d="M382.382 59.9839C381.364 60.8496 381.497 63.7979 382.537 64.6368C384.009 65.7868 385.159 67.2128 385.987 68.9148C386.861 70.6168 387.298 72.4338 387.298 74.3658C387.298 76.8038 386.677 79.0118 385.435 80.9898C384.193 82.9218 382.376 84.4628 379.984 85.6128C377.638 86.7168 374.855 87.2688 371.635 87.2688H355.695C354.591 87.2688 353.695 86.3734 353.695 85.2688V41.1758C353.695 40.0712 354.591 39.1758 355.695 39.1758H370.945C374.211 39.1758 376.994 39.7278 379.294 40.8318C381.594 41.8898 383.319 43.3388 384.469 45.1788C385.619 47.0188 386.194 49.0888 386.194 51.3888C386.194 54.2408 385.412 56.6098 383.848 58.4958C383.403 59.0353 382.914 59.5314 382.382 59.9839ZM359.974 57.9448C359.974 59.0494 360.87 59.9448 361.974 59.9448H370.531C373.475 59.9448 375.752 59.2548 377.362 57.8748C378.972 56.4948 379.777 54.5858 379.777 52.1478C379.777 49.7098 378.972 47.8008 377.362 46.4208C375.752 45.0408 373.429 44.3508 370.393 44.3508H361.974C360.87 44.3508 359.974 45.2462 359.974 46.3508V57.9448ZM371.083 82.0938C374.211 82.0938 376.649 81.3578 378.397 79.8858C380.145 78.4138 381.019 76.3668 381.019 73.7448C381.019 71.0768 380.099 68.9838 378.259 67.4658C376.419 65.9018 373.958 65.1198 370.876 65.1198H361.974C360.87 65.1198 359.974 66.0152 359.974 67.1198V80.0938C359.974 81.1983 360.87 82.0938 361.974 82.0938H371.083Z" fill="#001F3F"/>
<path d="M345.37 48.7671C346.803 48.7671 347.771 50.2307 347.21 51.5498L324.761 104.337C324.447 105.075 323.723 105.554 322.921 105.554H314.643C313.191 105.554 312.223 104.056 312.819 102.732L320.021 86.7528C320.25 86.246 320.257 85.667 320.041 85.1547L305.886 51.5434C305.331 50.2251 306.298 48.7671 307.729 48.7671H316.502C317.34 48.7671 318.088 49.2885 318.378 50.0737L324.913 67.7531C325.558 69.4976 328.026 69.4944 328.667 67.7484L335.148 50.0784C335.436 49.2907 336.186 48.7671 337.025 48.7671H345.37Z" fill="#001F3F"/>
<path d="M303.519 56.5649C303.519 57.6694 302.624 58.5649 301.519 58.5649H299.171C298.067 58.5649 297.171 59.4603 297.171 60.5649V85.2689C297.171 86.3734 296.276 87.2689 295.171 87.2689H287.372C286.268 87.2689 285.372 86.3734 285.372 85.2689V60.5649C285.372 59.4603 284.477 58.5649 283.372 58.5649H283.094C281.99 58.5649 281.094 57.6694 281.094 56.5649V50.7669C281.094 49.6623 281.99 48.7669 283.094 48.7669H284.268C284.878 48.7669 285.372 48.2726 285.372 47.6629C285.372 42.9249 286.729 39.3369 289.443 36.8989C292.157 34.4149 296.136 33.1729 301.38 33.1729C301.429 33.1729 301.477 33.1729 301.524 33.1731C302.543 33.1761 303.312 34.0128 303.312 35.0319V41.1207C303.312 42.2733 302.335 43.1529 301.188 43.2713C300.028 43.391 299.149 43.7049 298.551 44.2129C297.631 44.9949 297.171 46.3979 297.171 48.4219C297.171 48.6124 297.326 48.7669 297.516 48.7669H301.519C302.624 48.7669 303.519 49.6623 303.519 50.7669V56.5649Z" fill="#001F3F"/>
<path d="M269.784 44.765C267.714 44.765 266.012 44.167 264.678 42.971C263.39 41.729 262.746 40.211 262.746 38.417C262.746 36.577 263.39 35.059 264.678 33.863C266.012 32.621 267.714 32 269.784 32C271.808 32 273.464 32.621 274.752 33.863C276.086 35.059 276.753 36.577 276.753 38.417C276.753 40.211 276.086 41.729 274.752 42.971C273.464 44.167 271.808 44.765 269.784 44.765ZM273.649 48.767C274.753 48.767 275.649 49.6624 275.649 50.767V85.269C275.649 86.3736 274.753 87.269 273.649 87.269H265.85C264.745 87.269 263.85 86.3736 263.85 85.269V50.767C263.85 49.6624 264.745 48.767 265.85 48.767H273.649Z" fill="#001F3F"/>
<path d="M255.277 77.2638C256.382 77.2638 257.277 78.1592 257.277 79.2638V85.2688C257.277 86.3734 256.382 87.2688 255.277 87.2688H251.274C246.996 87.2688 243.661 86.2338 241.269 84.1638C238.877 82.0478 237.681 78.6208 237.681 73.8828V60.5648C237.681 59.4602 236.786 58.5648 235.681 58.5648H234.989C233.885 58.5648 232.989 57.6694 232.989 56.5648V50.7668C232.989 49.6622 233.885 48.7668 234.989 48.7668H235.681C236.786 48.7668 237.681 47.8714 237.681 46.7668V41.3828C237.681 40.2782 238.577 39.3828 239.681 39.3828H247.48C248.585 39.3828 249.48 40.2782 249.48 41.3828V46.7668C249.48 47.8714 250.376 48.7668 251.48 48.7668H255.208C256.313 48.7668 257.208 49.6622 257.208 50.7668V56.5648C257.208 57.6694 256.313 58.5648 255.208 58.5648H251.48C250.376 58.5648 249.48 59.4602 249.48 60.5648V74.0208C249.48 75.1708 249.756 75.9988 250.308 76.5048C250.86 77.0108 251.78 77.2638 253.068 77.2638H255.277Z" fill="#001F3F"/>
<path d="M209.411 87.8209C205.639 87.8209 202.235 87.0158 199.199 85.4058C196.209 83.7958 193.84 81.4958 192.092 78.5058C190.39 75.5158 189.539 72.0198 189.539 68.0178C189.539 64.0618 190.413 60.5888 192.161 57.5988C193.909 54.5628 196.301 52.2398 199.337 50.6298C202.373 49.0198 205.777 48.2148 209.549 48.2148C213.321 48.2148 216.725 49.0198 219.761 50.6298C222.797 52.2398 225.189 54.5628 226.937 57.5988C228.685 60.5888 229.559 64.0618 229.559 68.0178C229.559 71.9738 228.662 75.4698 226.868 78.5058C225.12 81.4958 222.705 83.7958 219.623 85.4058C216.587 87.0158 213.183 87.8209 209.411 87.8209ZM209.411 77.6088C211.665 77.6088 213.574 76.7808 215.138 75.1248C216.748 73.4688 217.553 71.0998 217.553 68.0178C217.553 64.9358 216.771 62.5668 215.207 60.9108C213.689 59.2548 211.803 58.4268 209.549 58.4268C207.249 58.4268 205.34 59.2548 203.822 60.9108C202.304 62.5208 201.545 64.8898 201.545 68.0178C201.545 71.0998 202.281 73.4688 203.753 75.1248C205.271 76.7808 207.157 77.6088 209.411 77.6088Z" fill="#001F3F"/>
<path d="M183.332 85.2691C183.332 86.3736 182.437 87.2691 181.332 87.2691H172.609C171.937 87.2691 171.31 86.9318 170.94 86.3713L155.468 62.9466C154.375 61.2918 151.799 62.0656 151.799 64.0489V85.2691C151.799 86.3736 150.904 87.2691 149.799 87.2691H142C140.895 87.2691 140 86.3736 140 85.2691V40.8311C140 39.7265 140.895 38.8311 142 38.8311H150.72C151.394 38.8311 152.022 39.1698 152.392 39.7323L167.862 63.2623C168.953 64.9213 171.533 64.149 171.533 62.1636V40.8311C171.533 39.7265 172.428 38.8311 173.533 38.8311H181.332C182.437 38.8311 183.332 39.7265 183.332 40.8311V85.2691Z" fill="#001F3F"/>
</svg>
