<svg version="1.2" xmlns="http://www.w3.org/2000/svg" viewBox="0 0 215 215" width="215" height="215"><style>.a{fill:#39cccc}.b{fill:#001f3f}</style><path fill-rule="evenodd" class="a" d="m52.8 0h107.5c29.6 0 53.7 24.1 53.7 53.8v107.4c0 29.7-24.1 53.8-53.7 53.8h-107.5c-29.7 0-53.8-24.1-53.8-53.8v-107.4c0-29.7 24.1-53.8 53.8-53.8z"/><path class="b" d="m168.9 104.3q0.1 1.6 0.1 3.2c0 34.6-28.1 62.7-62.7 62.7-34.7 0-62.7-28.1-62.7-62.7q0-1.6 0-3.2c5.1 4.3 11.3 7.2 18.2 8.2 2.4 22.4 21.4 39.8 44.5 39.8 23 0 42-17.4 44.5-39.8 6.8-1 13.1-3.9 18.1-8.2z"/><path class="b" d="m52.8 111.1h8.9c9.9 0 17.9 8 17.9 17.9h-26.8z"/><path fill-rule="evenodd" class="b" d="m115.5 44.8v107.5h-18v-107.5z"/><path class="b" d="m133.4 129c0-9.9 8-17.9 17.9-17.9h9v17.9z"/><path class="b" d="m79.6 44.8h17.9v17.9h-12.5c-3 0-5.4-2.4-5.4-5.4z"/><path class="b" d="m115.5 44.8h17.9v12.5c0 3-2.4 5.4-5.4 5.4h-12.5z"/></svg>